HIERARCHY
ROOT hip
{
  OFFSET 0 0 0
  CHANNELS 6 Xposition Yposition Zposition Zrotation Yrotation Xrotation
  JOINT abdomen
  {
    OFFSET 0 20.6881 -0.73152
    CHANNELS 3 Zrotation Xrotation Yrotation
    JOINT chest
    {
      OFFSET 0 11.7043 -0.48768
      CHANNELS 3 Zrotation Xrotation Yrotation
      JOINT neck
      {
        OFFSET 0 22.1894 -2.19456
        CHANNELS 3 Zrotation Xrotation Yrotation
        JOINT head
        {
          OFFSET -0.24384 7.07133 1.2192
          CHANNELS 3 Zrotation Xrotation Yrotation
          JOINT leftEye
          {
            OFFSET 4.14528 8.04674 8.04672
            CHANNELS 3 Zrotation Xrotation Yrotation
            End Site
            {
              OFFSET 1 0 0
            }
          }
          JOINT rightEye
          {
            OFFSET -3.6576 8.04674 8.04672
            CHANNELS 3 Zrotation Xrotation Yrotation
            End Site
            {
              OFFSET 1 0 0
            }
          }
        }
      }
      JOINT rCollar
      {
        OFFSET -2.68224 19.2634 -4.8768
        CHANNELS 3 Zrotation Xrotation Yrotation
        JOINT rShldr
        {
          OFFSET -8.77824 -1.95073 1.46304
          CHANNELS 3 Zrotation Xrotation Yrotation
          JOINT rForeArm
          {
            OFFSET -28.1742 -1.7115 0.48768
            CHANNELS 3 Zrotation Xrotation Yrotation
            JOINT rHand
            {
              OFFSET -22.5879 0.773209 7.07136
              CHANNELS 3 Zrotation Xrotation Yrotation
              JOINT rThumb1
              {
                OFFSET -1.2192 -0.487915 3.41376
                CHANNELS 3 Zrotation Xrotation Yrotation
                JOINT rThumb2
                {
                  OFFSET -3.37035 -0.52449 3.41376
                  CHANNELS 3 Zrotation Xrotation Yrotation
                  End Site
                  {
                    OFFSET -1.78271 -1.18214 1.43049
                  }
                }
              }
              JOINT rIndex1
              {
                OFFSET -7.75947 0.938293 5.60832
                CHANNELS 3 Zrotation Xrotation Yrotation
                JOINT rIndex2
                {
                  OFFSET -2.54057 -0.884171 1.56538
                  CHANNELS 3 Zrotation Xrotation Yrotation
                  End Site
                  {
                    OFFSET -1.62519 -0.234802 1.16502
                  }
                }
              }
              JOINT rMid1
              {
                OFFSET -8.24714 1.18213 3.41376
                CHANNELS 3 Zrotation Xrotation Yrotation
                JOINT rMid2
                {
                  OFFSET -3.10165 -0.590103 1.0647
                  CHANNELS 3 Zrotation Xrotation Yrotation
                  End Site
                  {
                    OFFSET -2.48547 -0.328903 0.83742
                  }
                }
              }
              JOINT rRing1
              {
                OFFSET -8.82822 0.546677 1.51678
                CHANNELS 3 Zrotation Xrotation Yrotation
                JOINT rRing2
                {
                  OFFSET -2.60934 -0.819778 -0.0198488
                  CHANNELS 3 Zrotation Xrotation Yrotation
                  End Site
                  {
                    OFFSET -2.33842 -0.294052 0.168128
                  }
                }
              }
              JOINT rPinky1
              {
                OFFSET -8.27202 -0.0477905 -0.4584
                CHANNELS 3 Zrotation Xrotation Yrotation
                JOINT rPinky2
                {
                  OFFSET -1.82734 -0.647385 -0.700984
                  CHANNELS 3 Zrotation Xrotation Yrotation
                  End Site
                  {
                    OFFSET -1.69225 -0.51767 -0.607171
                  }
                }
              }
            }
          }
        }
      }
      JOINT lCollar
      {
        OFFSET 2.68224 19.2634 -4.8768
        CHANNELS 3 Zrotation Xrotation Yrotation
        JOINT lShldr
        {
          OFFSET 8.77824 -1.95073 1.46304
          CHANNELS 3 Zrotation Xrotation Yrotation
          JOINT lForeArm
          {
            OFFSET 28.1742 -1.7115 0.48768
            CHANNELS 3 Zrotation Xrotation Yrotation
            JOINT lHand
            {
              OFFSET 22.5879 0.773209 7.07136
              CHANNELS 3 Zrotation Xrotation Yrotation
              JOINT lThumb1
              {
                OFFSET 1.2192 -0.487915 3.41376
                CHANNELS 3 Zrotation Xrotation Yrotation
                JOINT lThumb2
                {
                  OFFSET 3.37035 -0.52449 3.41376
                  CHANNELS 3 Zrotation Xrotation Yrotation
                  End Site
                  {
                    OFFSET 1.78271 -1.18214 1.43049
                  }
                }
              }
              JOINT lIndex1
              {
                OFFSET 7.75947 0.938293 5.60832
                CHANNELS 3 Zrotation Xrotation Yrotation
                JOINT lIndex2
                {
                  OFFSET 2.54057 -0.884171 1.56538
                  CHANNELS 3 Zrotation Xrotation Yrotation
                  End Site
                  {
                    OFFSET 1.62519 -0.234802 1.16502
                  }
                }
              }
              JOINT lMid1
              {
                OFFSET 8.24714 1.18213 3.41376
                CHANNELS 3 Zrotation Xrotation Yrotation
                JOINT lMid2
                {
                  OFFSET 3.10165 -0.590103 1.0647
                  CHANNELS 3 Zrotation Xrotation Yrotation
                  End Site
                  {
                    OFFSET 2.48547 -0.328903 0.83742
                  }
                }
              }
              JOINT lRing1
              {
                OFFSET 8.82822 0.546677 1.51678
                CHANNELS 3 Zrotation Xrotation Yrotation
                JOINT lRing2
                {
                  OFFSET 2.60934 -0.819778 -0.0198488
                  CHANNELS 3 Zrotation Xrotation Yrotation
                  End Site
                  {
                    OFFSET 2.33842 -0.294052 0.168128
                  }
                }
              }
              JOINT lPinky1
              {
                OFFSET 8.27202 -0.0477905 -0.4584
                CHANNELS 3 Zrotation Xrotation Yrotation
                JOINT lPinky2
                {
                  OFFSET 1.82734 -0.647385 -0.700984
                  CHANNELS 3 Zrotation Xrotation Yrotation
                  End Site
                  {
                    OFFSET 1.69225 -0.51767 -0.607171
                  }
                }
              }
            }
          }
        }
      }
    }
  }
  JOINT rButtock
  {
    OFFSET -8.77824 4.35084 1.2192
    CHANNELS 3 Zrotation Xrotation Yrotation
    JOINT rThigh
    {
      OFFSET 0 -1.70687 -2.19456
      CHANNELS 3 Zrotation Xrotation Yrotation
      JOINT rShin
      {
        OFFSET 0 -36.8199 0.73152
        CHANNELS 3 Zrotation Xrotation Yrotation
        JOINT rFoot
        {
          OFFSET 0.73152 -45.1104 -5.12064
          CHANNELS 3 Zrotation Xrotation Yrotation
          End Site
          {
            OFFSET -1.1221 -3.69964 12.103
          }
        }
      }
    }
  }
  JOINT lButtock
  {
    OFFSET 8.77824 4.35084 1.2192
    CHANNELS 3 Zrotation Xrotation Yrotation
    JOINT lThigh
    {
      OFFSET 0 -1.70687 -2.19456
      CHANNELS 3 Zrotation Xrotation Yrotation
      JOINT lShin
      {
        OFFSET 0 -36.8199 0.73152
        CHANNELS 3 Zrotation Xrotation Yrotation
        JOINT lFoot
        {
          OFFSET -0.73152 -45.1104 -5.12064
          CHANNELS 3 Zrotation Xrotation Yrotation
          End Site
          {
            OFFSET 1.1221 -3.69964 12.103
          }
        }
      }
    }
  }
}
MOTION
Frames:	4
Frame Time:	0.00833333
41.715 84.6773 -3.72144 98.3564 79.3793 104.691 -9.61003 15.4664 -11.9353 6.61272 2.2888 -3.44763 -13.7388 6.02754 -2.64039 30.0083 -42.5571 9.79091 -0.0 0.0 0.0 -0.0 0.0 0.0 -7.70046e-14 1.01316e-12 -1.53154e-13 109.069 35.4658 -56.3663 -28.3058 -38.275 80.8871 -0.46116 -18.9456 -2.76509 -3.24418e-10 9.74403e-10 4.73341e-10 -5.57793e-10 1.68611e-09 8.03557e-10 -3.24411e-10 9.74407e-10 4.73328e-10 7.73091 5.47488 0.417314 -3.24421e-10 9.74403e-10 4.73358e-10 2.90554 0.965183 0.102902 -3.24416e-10 9.74405e-10 4.73339e-10 10.2786 0.731801 0.0259123 -3.24423e-10 9.74405e-10 4.73348e-10 2.22167 -0.733487 -0.20892 -7.70803e-14 1.01316e-12 -1.53412e-13 -96.5638 44.0494 16.4543 28.5023 -35.9705 -76.586 0.584138 -21.117 3.11176 1.52394e-09 -3.85076e-09 6.73415e-09 2.5391e-09 -6.69054e-09 1.16612e-08 1.52394e-09 -3.85076e-09 6.73416e-09 -7.73091 5.47488 -0.417314 1.52395e-09 -3.85076e-09 6.73416e-09 -2.90554 0.965183 -0.102902 1.52393e-09 -3.85076e-09 6.73416e-09 -10.2786 0.731801 -0.0259123 1.52394e-09 -3.85076e-09 6.73416e-09 -2.22167 -0.733487 0.20892 -2.03217e-16 0.0 -3.88251e-19 -11.6434 -43.4368 -6.65689 -0.277548 27.8486 -0.24422 -0.130701 0.891496 0.96925 2.03217e-16 0.0 3.88251e-19 -7.28087 11.3335 8.32179 2.11812 71.1645 -2.85966 -0.119351 15.7178 9.83741
45.551 84.113 -3.62705 96.6287 79.8279 102.249 -8.73989 16.0401 -11.1011 6.20683 2.38056 -3.15235 -13.8363 5.97874 -2.99159 29.9123 -43.1259 9.23904 -0.0 0.0 0.0 -0.0 0.0 0.0 -9.74856e-14 1.50037e-12 -1.63836e-13 108.449 35.8109 -52.8479 -28.3159 -38.1758 80.713 -0.433798 -18.4027 -2.67993 -4.54315e-11 6.69221e-10 4.57811e-10 -7.82167e-11 1.15794e-09 7.84071e-10 -4.54248e-11 6.69225e-10 4.57793e-10 7.73091 5.47488 0.417314 -4.54343e-11 6.69222e-10 4.5782e-10 2.90554 0.965183 0.102902 -4.54274e-11 6.69223e-10 4.57811e-10 10.2786 0.731801 0.0259123 -4.54353e-11 6.69222e-10 4.57817e-10 2.22167 -0.733487 -0.20892 -9.75596e-14 1.50037e-12 -1.64097e-13 -97.774 43.7819 18.136 28.462 -33.7418 -72.8752 0.708772 -23.1766 3.44867 1.16164e-09 -2.44266e-09 4.42044e-09 1.94563e-09 -4.24558e-09 7.65811e-09 1.16163e-09 -2.44267e-09 4.42045e-09 -7.73091 5.47488 -0.417314 1.16164e-09 -2.44266e-09 4.42045e-09 -2.90554 0.965183 -0.102902 1.16163e-09 -2.44267e-09 4.42045e-09 -10.2786 0.731801 -0.0259123 1.16164e-09 -2.44266e-09 4.42044e-09 -2.22167 -0.733487 0.20892 -2.03217e-16 0.0 -3.88251e-19 -10.9316 -41.8215 -7.13321 -0.309577 28.9303 -0.364683 -0.114548 2.49605 1.65437 2.03217e-16 0.0 3.88251e-19 -5.35403 8.73079 9.47464 3.80999 77.7926 -4.50051 0.0634316 15.454 10.2579
49.2886 83.4617 -3.53508 95.6797 80.322 100.802 -7.8362 16.6341 -10.153 5.72961 2.43675 -2.82047 -13.9084 6.02731 -3.38417 29.797 -43.8151 8.59274 -0.0 0.0 0.0 -0.0 0.0 0.0 -1.11557e-13 1.84573e-12 -1.55738e-13 107.803 36.2105 -49.0978 -28.329 -38.0392 80.4746 -0.412638 -17.9617 -2.61129 2.38794e-10 3.11693e-10 4.01696e-10 4.10379e-10 5.39269e-10 6.95191e-10 2.38801e-10 3.11696e-10 4.01673e-10 7.73091 5.47488 0.417314 2.38792e-10 3.11694e-10 4.01698e-10 2.90554 0.965183 0.102902 2.388e-10 3.11694e-10 4.01698e-10 10.2786 0.731801 0.0259123 2.38791e-10 3.11692e-10 4.01702e-10 2.22167 -0.733487 -0.20892 -1.11623e-13 1.84572e-12 -1.55996e-13 -98.7054 43.7217 19.6627 28.1774 -31.3722 -69.2828 0.814637 -24.7561 3.71488 7.29209e-10 -8.06706e-10 1.73441e-09 1.23533e-09 -1.40518e-09 3.01026e-09 7.29201e-10 -8.06709e-10 1.73443e-09 -7.73091 5.47488 -0.417314 7.29207e-10 -8.06706e-10 1.73442e-09 -2.90554 0.965183 -0.102902 7.29202e-10 -8.06709e-10 1.73442e-09 -10.2786 0.731801 -0.0259123 7.29211e-10 -8.06708e-10 1.73441e-09 -2.22167 -0.733487 0.20892 -2.03217e-16 0.0 -3.88251e-19 -10.0676 -40.274 -7.34331 -0.339407 30.5867 -0.46298 -0.126502 3.58811 2.1036 2.03217e-16 0.0 3.88251e-19 -3.13967 5.92643 10.6625 9.36488 84.2623 -10.0009 0.22882 15.3927 10.4009
53.0454 82.7658 -3.46911 95.8541 80.748 100.468 -6.89618 17.1974 -9.18063 5.36112 2.43088 -2.48243 -13.9359 6.195 -3.73685 29.5211 -44.6567 7.96115 -0.0 0.0 0.0 -0.0 0.0 0.0 -1.10498e-13 1.7992e-12 -1.31844e-13 106.947 36.7984 -45.1937 -28.3387 -37.9282 80.2833 -0.405041 -17.7996 -2.58616 4.05649e-10 7.75117e-11 4.24843e-10 6.95907e-10 1.34099e-10 7.40358e-10 4.05656e-10 7.75141e-11 4.24814e-10 7.73091 5.47488 0.417314 4.05648e-10 7.75132e-11 4.24839e-10 2.90554 0.965183 0.102902 4.05657e-10 7.7513e-11 4.24846e-10 10.2786 0.731801 0.0259123 4.05647e-10 7.75109e-11 4.24849e-10 2.22167 -0.733487 -0.20892 -1.10558e-13 1.7992e-12 -1.32092e-13 -99.5955 43.9472 21.1964 27.7217 -29.1524 -65.8979 0.871658 -25.5217 3.84742 3.67421e-10 2.49823e-10 -1.13002e-10 6.36043e-10 4.29725e-10 -1.87695e-10 3.67413e-10 2.4982e-10 -1.12986e-10 -7.73091 5.47488 -0.417314 3.67418e-10 2.49823e-10 -1.12996e-10 -2.90554 0.965183 -0.102902 3.67415e-10 2.4982e-10 -1.12998e-10 -10.2786 0.731801 -0.0259123 3.67423e-10 2.4982e-10 -1.13005e-10 -2.22167 -0.733487 0.20892 -2.03217e-16 0.0 -3.88251e-19 -8.94944 -38.835 -7.19182 -0.371999 32.4902 -0.527108 -0.114875 3.46527 2.0901 2.03217e-16 0.0 3.88251e-19 -0.611973 2.80268 11.8499 117.842 88.8005 -118.411 0.325392 15.7202 10.0434
